<svg id="Layer_1" data-name="Layer 1" xmlns="http://www.w3.org/2000/svg" viewBox="0 0 451.69 165.61"><defs><style>.cls-1{fill:#00aeef;}.cls-2{fill:#072549;}</style></defs><title>flush_css</title><path class="cls-1" d="M459.24,186.68c-3.62-4-11.41-1.45-11.41,4.56,0,5.34,7.24,8.74,11.41,4.62l3.12,5.57a14.14,14.14,0,0,1-7.9,2.45,13,13,0,0,1-13.3-12.75c0-7,6-12.69,13.3-12.69a13.75,13.75,0,0,1,8,2.56Z" transform="translate(-57.03 -58.48)"/><path class="cls-1" d="M470.32,195c3.51,4,8.85,4.17,8.85,1.17,0-1.78-1.73-2.34-3.51-2.89-4.68-1.45-7.9-2.89-7.9-7.51,0-4.4,4-7.29,8.52-7.29a16.06,16.06,0,0,1,9.57,2.84l-3.23,5.07c-4.68-3.34-7.85-3.06-8.18-.5-.28,1.78,2.34,2.12,5.12,3.06,3.4,1,6.57,3.28,6.57,7.4,0,3.84-4,7.51-8.85,7.51a15.88,15.88,0,0,1-11.41-4.34Z" transform="translate(-57.03 -58.48)"/><path class="cls-1" d="M492.92,195c3.51,4,8.85,4.17,8.85,1.17,0-1.78-1.73-2.34-3.51-2.89-4.68-1.45-7.9-2.89-7.9-7.51,0-4.4,4-7.29,8.52-7.29a16.06,16.06,0,0,1,9.57,2.84l-3.23,5.07c-4.68-3.34-7.85-3.06-8.18-.5-.28,1.78,2.34,2.12,5.12,3.06,3.4,1,6.57,3.28,6.57,7.4,0,3.84-4,7.51-8.85,7.51a15.88,15.88,0,0,1-11.41-4.34Z" transform="translate(-57.03 -58.48)"/><path class="cls-2" d="M486.43,144.39c-3.85-8.08-11.7-12.24-21.32-11-12.39,1.56-20,9.93-27.3,18.88s-13,19.4-21.56,27.48c-2.35,2.22-5.28,5.51-8.54,3.41-3.08-2-.63-5.63.32-8.36,3.18-9.17,7-18.14,9.71-27.43,1.53-5.17,3-11.31-2-15.63-5.22-4.51-11-2.14-16.44.2-6.89,3-12.41,8.12-18.71,12.32.36-10.76,6-19.06,10.79-27.77,4.53-8.24,9.4-16.49,9.14-26.4-.2-7.92-3.51-11-11.38-11-11.14,0-17,7.16-21,16.23a113.16,113.16,0,0,0-9.88,41.91c-.52,15.56-9.72,24.32-21.13,34-1.43-10.55-6.3-18.54-8.78-27.33-.67-2.36-1.38-5.13.9-7a4.19,4.19,0,0,1,5.44-.12c6,5.53,7.54.33,9.06-3.82,3.38-9.2-1.34-16-11.2-16.54-21.15-1.16-33.36,13.8-27.8,34.26,2.4,8.82,5.23,17.53,7.76,26.31.63,2.19.75,4.54-1.58,5.94a4.88,4.88,0,0,1-6.13-1c-3.77-3.78-8.73-7-4.36-13.91,4.09-6.48,1-14.93-5.86-17-8.28-2.55-10.15,4.12-11.47,9.62-1.44,6-4.12,10.78-9.11,14.22-2.2,1.51-4.54,4.3-7.36,2.52-3.28-2.07-.65-5.15.18-7.47,3.63-10.17,8.1-20.07,11.28-30.37,3.14-10.13-2.89-18.5-13.23-19.49-5.65-.53-9.68,1-9.9,8-.4,12-3.91,23.47-6.91,35-1.49,5.73-5.48,9-10.28,11.26-3.83,1.83-6.65.64-6.37-4.22a40.73,40.73,0,0,1,3.79-15.23c4.35-9.2,4.55-18.85,2.3-28.49-1.67-7.21-5.46-8.67-11.47-4.37-9.33,6.68-15.6,16.36-14.83,27.49,1,14.08-8.51,20-16.75,27.38-1.59,1.43-3.8,2.87-6,1.7-3-1.57-1.54-4.41-1.1-6.71,3.51-18.24,7.22-36.45,10.59-54.72.83-4.47,2.81-6.64,7.3-7.59a49.14,49.14,0,0,0,20.88-9.87c11.7-9.46,13.16-21.88,3.94-32.67C221.29,56.6,207.58,55.63,197,64.66a43.1,43.1,0,0,0-12.71,19.22c-1.57,4.54-3.54,5.76-8.5,4.68C154.88,84,134.22,78.49,113.05,75.48c-10.74-1.52-21.59-2.69-32.18.77-21.84,7.13-31,34.87-17.59,53,6.25,8.49,15.79,11.37,23.22,7,6.24-3.67,6.48-8.09.94-12.57a46.27,46.27,0,0,1-7.67-7.52c-3.6-4.71-4.53-10.14-2-15.68,2.63-5.79,7.94-6.2,13.41-6.2,11.53,0,22.47,3.09,33.5,5.91,4.39,1.13,4.09,2.9,2.31,6.38a141,141,0,0,0-7.1,16.81c-1,2.83-2.22,4.51-5.3,5.51-7.29,2.38-8.39,7.77-4.79,13.82,2,3.31,1.12,4.5-1.58,6.44-8.32,6-16.58,12.12-24.55,18.57a62.32,62.32,0,0,0-15.81,18.08c-9.35,16.91-2.3,33.84,16.5,37.55,15.37,3,27.43-3.91,36.71-15.92,10-12.89,14-28.22,17.11-43.76,1.52-7.64,3.33-12.58,13-12.31,8.74.24,14-7.07,13.3-14.83-.93-10.21-8.08-6.28-13.67-6.21-2.11,0-6.13,1.67-5.53-2.45.94-6.54,1.82-13.66,5.12-19.09A3.17,3.17,0,0,1,154,107.4a21,21,0,0,1,3.74,1.11c1.63.44,3.71.92,6.14,1.36h0a6.59,6.59,0,0,1,.75.14h0c1.57.28,3.28.53,5.1.73a9.53,9.53,0,0,1,2.87.27h0c3,.92,2.69,3.87,1.92,7.54-4.37,20.61-8.9,41.2-11.92,62.08-.92,6.38-2.51,13.23,3.48,17.73s12.7,2.56,19.07,0c5.73-2.3,10.63-5.92,15.53-9.59,1.58-1.18,2.55-3.85,5.4-2.86.38,5.8-.34,12.28,6.4,15.06,6.91,2.84,13,.2,18.58-4,4.61-3.5,7.88-8.3,11.91-13.17,2,15.87,8.94,19.6,22.66,12.56,4.4-2.25,8.31-5.48,12.37-8.37,1.81-1.29,2.81-3,5,.21,10.36,14.9,22.82,17.94,39.31,10a167.8,167.8,0,0,0,25.49-15.38c2.14,13.39,7.51,19.8,16.69,20.57,5.71.49,9.35-.5,9.44-7.82.13-10.51,1.33-21,2.55-31.51a9.69,9.69,0,0,1,11.51-8.36c5.76,1.13,1.47,6.33.55,9.52-2.29,8-5.42,15.76-6.52,24-1.61,12.17,5.3,18.54,17.3,16.15,8.79-1.75,15.59-6.94,22-12.81,7.42-6.8,12.82-15.32,19.55-22.71,11.34-12.46,19.51-13.68,33.33-4.4,3.35,2.25,5.25,2,7.63-.67C487.09,158.79,490.28,152.47,486.43,144.39ZM203.12,87.87c1.44-4.75.77-11.61,7.36-12.36,3.66-.42,7.7,3.42,7.69,7.47a6.72,6.72,0,0,1-.92,3.67L217,87a5,5,0,0,1-1.75,1.42l0,0c-2.67,1.53-6.72,2.1-8.81,2.3a7.21,7.21,0,0,1-1.25.1C203.32,90.82,202.52,89.86,203.12,87.87ZM99.25,200.69c-1.86,3.42-4.28,7.1-9,5.63-5.12-1.6-4.83-6.32-4.33-10.41.84-6.92,5.27-12.07,9.71-17,4.18-4.64,8.76-8.92,14.43-14.64C107.59,178.09,105.12,189.91,99.25,200.69Z" transform="translate(-57.03 -58.48)"/></svg>